<svg xmlns="http://www.w3.org/2000/svg" width="255.277" height="346.742" viewBox="0 0 255.277 346.742">
  <g id="Gruppe_269" data-name="Gruppe 269" transform="translate(-565.097 159.769)">
    <ellipse id="Ellipse_3" data-name="Ellipse 3" cx="40.872" cy="9.104" rx="40.872" ry="9.104" transform="translate(738.631 168.765)" fill="rgba(146,128,118,0.18)"/>
    <g id="Gruppe_80" data-name="Gruppe 80" transform="translate(342 -252)">
      <g id="Gruppe_70" data-name="Gruppe 70">
        <g id="Gruppe_68" data-name="Gruppe 68">
          <path id="Pfad_124" data-name="Pfad 124" d="M431.316,279.693c-3.638,4.29-7.377,8.491-11.369,12.58-2.031,2.033-4.05,4.057-6.314,6.009-1.077.988-2.322,1.94-3.523,2.9l-1.99,1.4a12.632,12.632,0,0,1-1.118.687l-1.645.94a8.538,8.538,0,0,1-3.168.833,13.6,13.6,0,0,1-1.653.036c-.27-.005-.561-.026-.854-.053l-.362-.035-.3-.033a36.828,36.828,0,0,1-4.153-.793c-2.574-.631-4.982-1.379-7.364-2.181s-4.713-1.668-7.037-2.6c-2.344-.951-4.586-1.88-7.082-3.178h0a7.306,7.306,0,0,1-.415-1.444,5.739,5.739,0,0,1-.077-.72,3.77,3.77,0,0,1-.01-.734,4.462,4.462,0,0,1,.3-1.366,3.759,3.759,0,0,1,.777-1.059l.959-.91c.324-.3.535-.661.866-.945l.432-.445c.154-.141.325-.271.484-.4a6.029,6.029,0,0,1,1.038-.673h0c1.824.816,4.074,1.623,6.235,2.346,2.189.73,4.413,1.4,6.631,2.011s4.443,1.146,6.569,1.532a25.768,25.768,0,0,0,2.958.391,1.39,1.39,0,0,0,.152.006c.053,0,.1,0,.088,0,.006-.005.016,0,.045-.007.048-.01.094-.014.139-.028a.449.449,0,0,0,.242-.129l.03-.042.014-.021.007-.01.07-.046a5.029,5.029,0,0,0,.612-.428l1.316-1.054c.893-.819,1.8-1.58,2.694-2.508,1.8-1.744,3.556-3.72,5.293-5.68,3.456-3.989,6.788-8.2,10.008-12.5a6.559,6.559,0,0,1,9.223-.952A6.425,6.425,0,0,1,431.316,279.693Z" fill="#326687"/>
        </g>
        <g id="Gruppe_69" data-name="Gruppe 69">
          <path id="Pfad_125" data-name="Pfad 125" d="M379.107,293.6h0a5.831,5.831,0,0,1-7.874,2.224h0a5.739,5.739,0,0,1-2.122-7.848h0a5.83,5.83,0,0,1,7.875-2.224h0A5.738,5.738,0,0,1,379.107,293.6Z" fill="#ffcdb5"/>
          <path id="Pfad_126" data-name="Pfad 126" d="M373.074,295.036h0a1.44,1.44,0,0,1-1.852.8l-8.726-3.459a1.409,1.409,0,0,1-.775-1.843h0a1.441,1.441,0,0,1,1.852-.8l8.725,3.46A1.408,1.408,0,0,1,373.074,295.036Z" fill="#ffcdb5"/>
          <path id="Pfad_127" data-name="Pfad 127" d="M371.853,291.458h0a1.439,1.439,0,0,1-1.9.67l-8.455-4.063a1.411,1.411,0,0,1-.645-1.893h0a1.438,1.438,0,0,1,1.9-.67l8.455,4.063A1.41,1.41,0,0,1,371.853,291.458Z" fill="#ffcdb5"/>
          <path id="Pfad_128" data-name="Pfad 128" d="M372.784,288.4h0a1.436,1.436,0,0,1-1.939.548l-8.171-4.6a1.413,1.413,0,0,1-.523-1.932h0a1.437,1.437,0,0,1,1.939-.548l8.172,4.6A1.412,1.412,0,0,1,372.784,288.4Z" fill="#ffcdb5"/>
          <path id="Pfad_129" data-name="Pfad 129" d="M376.167,287.174h0a1.434,1.434,0,0,1-1.978.375l-7.723-5.309a1.416,1.416,0,0,1-.349-1.973h0a1.432,1.432,0,0,1,1.977-.374l7.724,5.308A1.416,1.416,0,0,1,376.167,287.174Z" fill="#ffcdb5"/>
          <path id="Pfad_130" data-name="Pfad 130" d="M377.888,290.154h0A1.673,1.673,0,0,1,376,288.7l-.682-5.651a1.725,1.725,0,0,1,1.478-1.9h0a1.673,1.673,0,0,1,1.883,1.454l.682,5.651A1.723,1.723,0,0,1,377.888,290.154Z" fill="#ffcdb5"/>
        </g>
      </g>
      <g id="Gruppe_72" data-name="Gruppe 72">
        <path id="Pfad_131" data-name="Pfad 131" d="M407.718,243.519c5.645-76.22-50.582-144.007-126.663-151.288l-1.971,23.224a31.963,31.963,0,0,1,7.438-.227c12.879,1.093,22.687,9.432,21.907,18.625s-11.853,15.76-24.733,14.667a32.016,32.016,0,0,1-7.293-1.478l-1.7,20.03a65.477,65.477,0,0,1,58.291,69.1l25.9,2.3c-1.86,3.04-3.474,9.8-3.828,13.979-.917,10.8,4.588,20.078,12.3,20.732s14.7-7.568,15.613-18.364c.354-4.173.094-11.1-1.227-14.407Z" fill="#e68566"/>
        <g id="Gruppe_71" data-name="Gruppe 71">
          <path id="Pfad_132" data-name="Pfad 132" d="M385.225,243.774a31.221,31.221,0,0,1,.824,10.455c-1.112,12.877-9.464,22.674-18.656,21.88s-15.743-11.876-14.632-24.753a31.216,31.216,0,0,1,2.6-10.16L332.6,239.232a65.477,65.477,0,0,1-69.186,58.191L260.913,322.9c-3.384-2.717-11.144-4.969-16.46-5.428-11.089-.957-20.633,4.684-21.317,12.6s7.753,15.109,18.843,16.066c5.316.459,13.331-.243,17.13-2.34l-2.15,28.456A140.58,140.58,0,0,0,407.435,245.69Z" fill="#84b395"/>
        </g>
      </g>
      <g id="Gruppe_79" data-name="Gruppe 79">
        <path id="Pfad_133" data-name="Pfad 133" d="M427.311,419.437s2.857,4.236,2.069,8.866-25.311,4.5-25.711.985c-.689-6.06,13.1-8.077,13.1-8.077Z" fill="#593837"/>
        <path id="Pfad_134" data-name="Pfad 134" d="M463.658,415.217s4.384,2.624,5.634,7.151-21.011,14.812-22.864,11.8c-3.2-5.2,8.437-12.873,8.437-12.873Z" fill="#784b4a"/>
        <g id="Gruppe_73" data-name="Gruppe 73">
          <path id="Pfad_135" data-name="Pfad 135" d="M433.456,334.829l-4.515,43.018c-.41,3.652-.679,6.992-.877,10.513-.184,3.5-.287,7.028-.344,10.57-.089,7.084.014,14.227.292,21.334h0a7.777,7.777,0,0,1-11.645.767h0c-.657-7.3-1.134-14.6-1.416-21.95-.128-3.679-.208-7.371-.2-11.09.016-3.7.136-7.568.356-11.11l2.335-43.357c.248-4.989,4.2-8.806,8.728-8.424S433.995,329.889,433.456,334.829Z" fill="#8ab5ab"/>
        </g>
        <path id="Pfad_136" data-name="Pfad 136" d="M447.772,335.366c-4.676,8.717-15.99,10.779-24.723,5.969s-9.845-11.613-5.168-20.33,11.57-1.561,20.3,3.249S452.449,326.649,447.772,335.366Z" fill="#a5d8cc"/>
        <g id="Gruppe_74" data-name="Gruppe 74">
          <path id="Pfad_137" data-name="Pfad 137" d="M447.036,335.14l-.064,21.809.056,10.836c.042,1.781.016,3.545.187,5.08l.183,2.386c.074.8.241,1.6.354,2.4a77.886,77.886,0,0,0,5.862,19.222,119.1,119.1,0,0,0,9.95,18.193h0a8.638,8.638,0,0,1-3.184,5.522,7.27,7.27,0,0,1-6.33,1.235h0a131,131,0,0,1-12-19.532,91.13,91.13,0,0,1-7.937-22.113c-.194-.991-.436-1.965-.586-2.974l-.4-3.045c-.31-2.079-.372-3.966-.511-5.82l-.612-11.005-1.037-21.883c-.246-5.029,3.32-9.262,7.861-9.341S447.084,330.123,447.036,335.14Z" fill="#a5d8cc"/>
        </g>
        <path id="Pfad_138" data-name="Pfad 138" d="M426.778,266.066c9.576-2.161,14.435-2.024,23.229,2.345a23.266,23.266,0,0,1,5.8,5c2.847,3.817,2.02,8.995-3.679,58.34a2.733,2.733,0,0,1-2.985,2.438c-6.715-.724-24.531-2.758-36.518-5.172a1.072,1.072,0,0,1-.853-1.1c.185-5.991,1.64-14.894,6.252-48.1.746-5.367,2.385-12.719,8.75-13.752Z" fill="#3b79a3"/>
        <path id="Pfad_139" data-name="Pfad 139" d="M432.69,272.626h0c-3.523-.408-2.545-3.255-2.132-6.824l.932-8.072a6.506,6.506,0,0,1,7.155-5.747h0a6.515,6.515,0,0,1,5.656,7.233l-.932,8.072C442.956,270.858,436.214,273.035,432.69,272.626Z" fill="#ffcdb5"/>
        <path id="Pfad_140" data-name="Pfad 140" d="M433.918,270.392a7.944,7.944,0,0,0-2.92,1.641s1.382,2.371,5.521.972Z" fill="#2d5f75"/>
        <path id="Pfad_141" data-name="Pfad 141" d="M438.645,251.983a6.506,6.506,0,0,0-7.155,5.747l-.932,8.072c-.014.12-.03.237-.045.356a15.442,15.442,0,0,0,13.708-6.245l.08-.7A6.515,6.515,0,0,0,438.645,251.983Z" fill="#e6af95"/>
        <g id="Gruppe_76" data-name="Gruppe 76">
          <g id="Gruppe_75" data-name="Gruppe 75">
            <path id="Pfad_142" data-name="Pfad 142" d="M450.5,255h0a3.6,3.6,0,0,1-2.534-4.4l.951-3.623a3.6,3.6,0,0,1,4.368-2.591h0a3.6,3.6,0,0,1,2.534,4.4l-.951,3.623A3.6,3.6,0,0,1,450.5,255Z" fill="#ffcdb5"/>
            <path id="Pfad_143" data-name="Pfad 143" d="M451.247,253.585h0a2.176,2.176,0,0,1-1.53-2.659l.886-3.379a2.176,2.176,0,0,1,2.639-1.564h0a2.174,2.174,0,0,1,1.53,2.658l-.886,3.379A2.176,2.176,0,0,1,451.247,253.585Z" fill="#e6af95"/>
            <path id="Pfad_144" data-name="Pfad 144" d="M451.583,250.577l-2.9-.762a.933.933,0,0,1-.656-1.139h0a.932.932,0,0,1,1.131-.67l2.9.761a.934.934,0,0,1,.656,1.14h0A.933.933,0,0,1,451.583,250.577Z" fill="#ffcdb5"/>
          </g>
          <path id="Pfad_145" data-name="Pfad 145" d="M431.408,264.549h0a15.617,15.617,0,0,1-11.565-18.738l2.226-9.685a15.617,15.617,0,0,1,18.585-11.808h0a15.617,15.617,0,0,1,11.565,18.738l-2.226,9.685A15.616,15.616,0,0,1,431.408,264.549Z" fill="#ffcdb5"/>
          <path id="Pfad_146" data-name="Pfad 146" d="M424.524,244.9h0a1.6,1.6,0,0,1-1.2-1.912l.41-1.791a1.6,1.6,0,0,1,1.912-1.2h0a1.6,1.6,0,0,1,1.2,1.912l-.41,1.791A1.6,1.6,0,0,1,424.524,244.9Z" fill="#2d5f75"/>
          <path id="Pfad_147" data-name="Pfad 147" d="M424.526,242.392h0a.508.508,0,0,1-.381-.607l.173-.755a.509.509,0,0,1,.608-.381h0a.509.509,0,0,1,.381.608l-.173.754A.509.509,0,0,1,424.526,242.392Z" fill="#fff"/>
          <path id="Pfad_148" data-name="Pfad 148" d="M428.746,248.06a1.584,1.584,0,1,0,3.087.71l.178-.777a1.581,1.581,0,0,1-3.065-.774Z" fill="#e6af95"/>
          <path id="Pfad_149" data-name="Pfad 149" d="M435.466,253.539a.525.525,0,0,1,.342.721,5.559,5.559,0,0,1-10.788-2.48.525.525,0,0,1,.623-.5Z" fill="#b83b3c"/>
          <path id="Pfad_150" data-name="Pfad 150" d="M429.835,255.645a5.216,5.216,0,0,0-3.447.424,5.086,5.086,0,0,0,6.344,1.439A5.213,5.213,0,0,0,429.835,255.645Z" fill="#f14d4e"/>
          <path id="Pfad_151" data-name="Pfad 151" d="M435.389,255.044a6.053,6.053,0,0,0,.419-.784.525.525,0,0,0-.342-.721l-9.823-2.258a.525.525,0,0,0-.623.5,5.959,5.959,0,0,0,.035.889Z" fill="#fff"/>
          <path id="Pfad_152" data-name="Pfad 152" d="M424.132,237.4a2.382,2.382,0,0,1,2.156-.438,2.308,2.308,0,0,1,1.785,1.45" fill="none" stroke="#2d5f75" stroke-linecap="round" stroke-linejoin="round" stroke-width="0.603"/>
          <path id="Pfad_153" data-name="Pfad 153" d="M438.97,240.508a2.378,2.378,0,0,1,2.156-.437,2.306,2.306,0,0,1,1.785,1.45" fill="none" stroke="#2d5f75" stroke-linecap="round" stroke-linejoin="round" stroke-width="0.603"/>
          <path id="Pfad_154" data-name="Pfad 154" d="M438.077,246.365l.41-1.791a1.6,1.6,0,0,1,1.912-1.2h0a1.6,1.6,0,0,1,1.2,1.911l-.411,1.791" fill="none" stroke="#2d5f75" stroke-linecap="round" stroke-linejoin="round" stroke-width="0.603"/>
        </g>
        <path id="Pfad_155" data-name="Pfad 155" d="M433.918,270.392s8.991-1.717,9.917-7.146a9.034,9.034,0,0,1,4.217,4.236s-4.3,6.825-11.191,7.875A20.769,20.769,0,0,0,433.918,270.392Z" fill="#fff"/>
        <path id="Pfad_156" data-name="Pfad 156" d="M431,272.033a14.518,14.518,0,0,0-.884-3.3s-.847-.182-1.426.92A3.08,3.08,0,0,0,431,272.033Z" fill="#2d5f75"/>
        <path id="Pfad_157" data-name="Pfad 157" d="M430.217,269.118a10.143,10.143,0,0,0-3.038,2.72s-.274-3.686,1.468-6.175c1.2-1.711,2.091-1.426,2.091-1.426Z" fill="#fff"/>
        <path id="Pfad_158" data-name="Pfad 158" d="M439.461,222.574c-.384-.011-.758-.01-1.125,0h0c-14.776.239-17.258-4.944-17.258-4.944-6.691,15.094,4.754,17.4,4.754,17.4h0c9.474,3.733,23.362,2.074,23.362,2.074-5.73,17.014.61,17.347.61,17.347C461.3,232.4,452.459,222.94,439.461,222.574Z" fill="#2d5f75"/>
        <g id="Gruppe_77" data-name="Gruppe 77">
          <path id="Pfad_159" data-name="Pfad 159" d="M452.713,283.637a155.6,155.6,0,0,1-17.857.316,74.108,74.108,0,0,1-9.277-.965,39.067,39.067,0,0,1-4.891-1.15c-.832-.243-1.706-.576-2.57-.919l-1.34-.624c-.217-.1-.46-.249-.687-.373-.308-.17-.615-.347-.916-.53a16.464,16.464,0,0,1-2.517-2.334,22.723,22.723,0,0,1-1.478-1.944c-.466-.631-.81-1.207-1.2-1.807s-.747-1.184-1.1-1.77c-1.423-2.347-2.715-4.674-3.97-7.017s-2.464-4.693-3.644-7.066-2.317-4.733-3.432-7.314h0a6.171,6.171,0,0,1,.59-1.345c.12-.205.251-.39.388-.579a4.036,4.036,0,0,1,.429-.6,4.343,4.343,0,0,1,2.27-1.33,18.8,18.8,0,0,1,2.606-.394l.618-.078c.217,0,.442.025.66.048a8.571,8.571,0,0,1,1.288.247h0c1.064,2.127,2.312,4.391,3.56,6.587s2.541,4.4,3.865,6.562,2.67,4.3,4.054,6.313c.345.508.69,1.016,1.038,1.48s.7.984,1.033,1.375a11.947,11.947,0,0,0,.937,1.1c.23.253.231.215.341.273l.02-.013a2.024,2.024,0,0,0,.258.122l.617.24c.474.144.939.3,1.486.424a27.444,27.444,0,0,0,3.472.6,62.529,62.529,0,0,0,7.762.354,143.142,143.142,0,0,0,16.292-1.215,6.781,6.781,0,0,1,7.468,5.865A6.577,6.577,0,0,1,452.713,283.637Z" fill="#326687"/>
        </g>
        <g id="Gruppe_78" data-name="Gruppe 78">
          <path id="Pfad_160" data-name="Pfad 160" d="M404.558,251.236h0a5.83,5.83,0,0,1-7.913-2.081h0a5.74,5.74,0,0,1,2.156-7.839h0a5.831,5.831,0,0,1,7.914,2.082h0A5.738,5.738,0,0,1,404.558,251.236Z" fill="#ffcdb5"/>
          <path id="Pfad_161" data-name="Pfad 161" d="M398.63,249.412h0a1.44,1.44,0,0,1-2-.251l-5.761-7.411a1.407,1.407,0,0,1,.267-1.98h0a1.441,1.441,0,0,1,2,.25l5.761,7.411A1.408,1.408,0,0,1,398.63,249.412Z" fill="#ffcdb5"/>
          <path id="Pfad_162" data-name="Pfad 162" d="M399.395,245.709h0a1.437,1.437,0,0,1-1.978-.388l-5.222-7.793a1.411,1.411,0,0,1,.4-1.959h0a1.438,1.438,0,0,1,1.979.389l5.221,7.793A1.409,1.409,0,0,1,399.395,245.709Z" fill="#ffcdb5"/>
          <path id="Pfad_163" data-name="Pfad 163" d="M401.748,243.55h0a1.435,1.435,0,0,1-1.948-.513l-4.706-8.109a1.413,1.413,0,0,1,.53-1.93h0a1.436,1.436,0,0,1,1.949.513l4.706,8.109A1.413,1.413,0,0,1,401.748,243.55Z" fill="#ffcdb5"/>
          <path id="Pfad_164" data-name="Pfad 164" d="M405.286,244.208h0a1.431,1.431,0,0,1-1.893-.681l-3.96-8.494a1.417,1.417,0,0,1,.7-1.877h0a1.432,1.432,0,0,1,1.894.681l3.96,8.494A1.416,1.416,0,0,1,405.286,244.208Z" fill="#ffcdb5"/>
          <path id="Pfad_165" data-name="Pfad 165" d="M405.256,247.649h0a1.672,1.672,0,0,1-.885-2.208l2.281-5.215a1.724,1.724,0,0,1,2.239-.889h0a1.673,1.673,0,0,1,.885,2.209l-2.281,5.215A1.724,1.724,0,0,1,405.256,247.649Z" fill="#ffcdb5"/>
        </g>
      </g>
    </g>
  </g>
</svg>
