<svg xmlns="http://www.w3.org/2000/svg" width="207.548" height="244.901" viewBox="0 0 207.548 244.901">
  <g id="Gruppe_270" data-name="Gruppe 270" transform="translate(563.997 -111.307)">
    <ellipse id="Ellipse_4" data-name="Ellipse 4" cx="63.123" cy="9.104" rx="63.123" ry="9.104" transform="translate(-563.997 338)" fill="rgba(146,128,118,0.18)"/>
    <g id="Gruppe_94" data-name="Gruppe 94" transform="translate(-610 -90.421)">
      <g id="Gruppe_81" data-name="Gruppe 81">
        <path id="Pfad_166" data-name="Pfad 166" d="M96.376,328.654c5.675-2.044,11.305-4.243,16.729-6.7,2.711-1.227,5.357-2.54,7.86-3.953,1.236-.715,2.436-1.455,3.533-2.226.53-.39,1.05-.779,1.5-1.171.251-.2.412-.386.627-.576s.361-.413.4-.408a.8.8,0,0,0,.082-.107l.212-.489c.166-.378.346-.918.52-1.369.344-.988.683-2,1.009-3.037.653-2.068,1.283-4.17,1.888-6.284,1.208-4.216,2.387-8.513,3.408-12.711h0a5.026,5.026,0,0,1,3.786-1.16,3.981,3.981,0,0,1,3.06,2.632h0c-.9,4.479-1.892,8.8-2.95,13.176-.528,2.182-1.083,4.362-1.677,6.559q-.442,1.644-.955,3.33c-.2.6-.346,1.119-.592,1.772-.131.332-.224.622-.419,1.053l-.742,1.334c-.47.581-.765.976-1.111,1.328s-.682.732-1.021,1.028c-.681.642-1.365,1.2-2.05,1.748-1.37,1.053-2.748,1.979-4.132,2.858-2.771,1.721-5.567,3.251-8.388,4.672-5.64,2.844-11.352,5.35-17.127,7.706-3.436,1.414-7.091.385-7.981-2.193S93,329.856,96.376,328.654Z" fill="#d49b3d"/>
      </g>
      <g id="Gruppe_82" data-name="Gruppe 82">
        <path id="Pfad_167" data-name="Pfad 167" d="M136.359,294.327h0a5.677,5.677,0,0,0,6.314-4.82h0a5.531,5.531,0,0,0-4.729-6.275h0a5.677,5.677,0,0,0-6.314,4.82h0A5.531,5.531,0,0,0,136.359,294.327Z" fill="#ffcdb5"/>
        <path id="Pfad_168" data-name="Pfad 168" d="M140.994,290.477h0a1.394,1.394,0,0,0,1.7-.97l2.486-8.831a1.366,1.366,0,0,0-.947-1.689h0a1.394,1.394,0,0,0-1.7.97l-2.486,8.831A1.365,1.365,0,0,0,140.994,290.477Z" fill="#ffcdb5"/>
        <path id="Pfad_169" data-name="Pfad 169" d="M138.987,287.419h0a1.4,1.4,0,0,0,1.625-1.086l1.868-8.976a1.362,1.362,0,0,0-1.063-1.617h0a1.4,1.4,0,0,0-1.625,1.086l-1.868,8.975A1.363,1.363,0,0,0,138.987,287.419Z" fill="#ffcdb5"/>
        <path id="Pfad_170" data-name="Pfad 170" d="M136.115,286.344h0a1.4,1.4,0,0,0,1.554-1.187l1.295-9.07a1.361,1.361,0,0,0-1.164-1.545h0a1.4,1.4,0,0,0-1.555,1.187l-1.295,9.07A1.362,1.362,0,0,0,136.115,286.344Z" fill="#ffcdb5"/>
        <path id="Pfad_171" data-name="Pfad 171" d="M133.194,288.253h0a1.4,1.4,0,0,0,1.446-1.319l.491-9.14a1.36,1.36,0,0,0-1.3-1.434h0a1.4,1.4,0,0,0-1.446,1.319l-.491,9.14A1.36,1.36,0,0,0,133.194,288.253Z" fill="#ffcdb5"/>
        <path id="Pfad_172" data-name="Pfad 172" d="M133.553,290.526h0a1.649,1.649,0,0,0,1.131-2.028l-1.521-5.273a1.64,1.64,0,0,0-2.036-1.1h0A1.65,1.65,0,0,0,130,284.149l1.521,5.273A1.64,1.64,0,0,0,133.553,290.526Z" fill="#ffcdb5"/>
      </g>
      <path id="Pfad_173" data-name="Pfad 173" d="M236.374,314.7a30.322,30.322,0,0,1,13.109,1.777l-1.728-22.329a65.477,65.477,0,0,1-68.668-58.8l-22,1.7a30.283,30.283,0,0,0,1.824-13.238c-1-12.887-9.263-22.757-18.461-22.045S124.605,213.5,125.6,226.387a30.279,30.279,0,0,0,3.839,12.8L104.2,241.14a140.581,140.581,0,0,0,149.35,127.893l-1.919-24.795a30.323,30.323,0,0,1-12.68,3.773c-12.887,1-23.911-5.651-24.623-14.85S223.487,315.7,236.374,314.7Z" fill="#5e5e5e"/>
      <g id="Gruppe_93" data-name="Gruppe 93">
        <g id="Gruppe_92" data-name="Gruppe 92">
          <g id="Gruppe_83" data-name="Gruppe 83">
            <path id="Pfad_174" data-name="Pfad 174" d="M104.053,385.254l.362,1.492.259,1.447c.171.965.352,1.937.437,2.867.1.939.222,1.883.306,2.815l.156,2.754c.066.924.079,1.827.074,2.722l.008,2.7c-.032,1.782-.141,3.534-.211,5.3-.12,1.747-.295,3.473-.443,5.207s-.417,3.423-.622,5.135-.476,3.4-.763,5.076l-.213,1.287-.347,2.26c-.115.752-.366,1.446-.541,2.17a4.868,4.868,0,0,1-.39,1.023l-.448.991a12.5,12.5,0,0,1-6.516,5.6,13.306,13.306,0,0,1-2.12.671c-.362.09-.715.206-1.083.275l-1.115.167a17.516,17.516,0,0,1-2.164.255c-.528.02-1.079.065-1.576.055a58.933,58.933,0,0,1-11.116-1.171A151.582,151.582,0,0,1,56.1,430.914h0c-2.177-4.31-.219-9.517,3.691-11.887h0a138.952,138.952,0,0,0,18.354,3.869,45.587,45.587,0,0,0,8.482.42c.324-.01.589-.065.88-.09a.951.951,0,0,0,.269-.06,1.72,1.72,0,0,0,.354-.156.8.8,0,0,0,.428-.553,1.994,1.994,0,0,0-.009-.355l-.014-.178.121-1.152c.174-1.57.339-3.138.422-4.7s.25-3.124.286-4.667.1-3.091.117-4.622c-.036-1.516-.028-3.045-.091-4.544l-.142-2.225c-.038-.745-.092-1.482-.191-2.192l-.249-2.151-.355-2.063c-.1-.7-.273-1.334-.427-1.978l-.227-.965-.282-.884a5.369,5.369,0,0,1,.807-4.623,54.659,54.659,0,0,1,3.9-5.023c1.543-1.9,4.375-2.228,6.785-1.1A9.2,9.2,0,0,1,104.053,385.254Z" fill="#3c7aa3"/>
          </g>
          <g id="Gruppe_84" data-name="Gruppe 84">
            <path id="Pfad_175" data-name="Pfad 175" d="M110.182,378.446q8.328,1.08,16.726,2l4.2.46,1.049.112,1.421.137c.669.064,1.345.1,1.99.227l.973.179.241.048c.034.027.094-.025.106.067l.116.037.464.145a9.471,9.471,0,0,1,1.82.672,8.688,8.688,0,0,1,1.671.993,9.228,9.228,0,0,1,1.476,1.264,11.194,11.194,0,0,1,1.3,1.441,17.887,17.887,0,0,1,2.026,3.351c.262.6.508,1.218.736,1.837a15.98,15.98,0,0,1,.516,1.657,44.822,44.822,0,0,1,1.346,10c.118,3.129.046,6.152-.116,9.136-.341,5.965-1.025,11.751-1.938,17.551h0c-3.8,2.439-9.274,1.47-12.35-1.554h0c.476-5.436.738-10.948.671-16.3-.04-2.676-.167-5.32-.44-7.839a30.66,30.66,0,0,0-1.343-6.735,1.491,1.491,0,0,0-.143-.357l-.083-.114a1.234,1.234,0,0,0-.19-.186.591.591,0,0,0-.464-.133,2.258,2.258,0,0,0-.228.053l-.026.008-.013,0-.124,0-.534-.019-1.068-.04-4.274-.172q-8.55-.358-17.122-.858c-3.953-.213-6.849-4.433-6.3-9.249S106.359,377.932,110.182,378.446Z" fill="#3c7aa3"/>
          </g>
          <ellipse id="Ellipse_10" data-name="Ellipse 10" cx="14.713" cy="12.102" rx="14.713" ry="12.102" transform="translate(84.327 373.587)" fill="#3b79a3"/>
          <g id="Gruppe_85" data-name="Gruppe 85">
            <path id="Pfad_176" data-name="Pfad 176" d="M136.044,426.631s-2.012,3.356-.755,9.521l2.666.245,1.461-2.1a.888.888,0,0,1,1.407-.053,8.722,8.722,0,0,0,3.931,2.772c2.757.791,9.247,1.925,11.079-.864s-10.591-8.681-10.591-8.681Z" fill="#e06566"/>
            <path id="Pfad_177" data-name="Pfad 177" d="M151.365,430.861h0a64.114,64.114,0,0,0-6.124-3.385l-9.2-.845S141.012,434.541,151.365,430.861Z" fill="#ffcdb5"/>
          </g>
          <path id="Pfad_178" data-name="Pfad 178" d="M100.854,324.436c3.71.215,7.144,0,9.452,2.917,4.061,5.127,9.406,10.238,10.037,15.309a6.106,6.106,0,0,1-.074,2.128c-.929,4.032-5.809,11.492-5.806,15.871.011,12.816,5.126,10.929,4.8,23.6-19.767,8.529-38.8.452-38.8.452.551-11.064,3.576-9.116,4.481-19.712a35.221,35.221,0,0,0-.69-10.714,50.17,50.17,0,0,1-1.136-14.37c.329-3.789.351-6.486,3.737-10.421,3.8-4.419,9.382-5.328,13.995-5.06Z" fill="#f0b045"/>
          <g id="Gruppe_86" data-name="Gruppe 86">
            <path id="Pfad_179" data-name="Pfad 179" d="M91.006,330.36c6.016.446,12.053.731,18.008.7,2.977-.016,5.928-.137,8.79-.408,1.419-.149,2.816-.336,4.133-.593.642-.14,1.277-.284,1.85-.457.308-.077.533-.185.807-.271s.5-.23.528-.211a.844.844,0,0,0,.118-.064l.393-.361c.306-.277.69-.7,1.033-1.037.716-.763,1.439-1.55,2.159-2.363,1.438-1.623,2.87-3.286,4.284-4.97,2.821-3.358,5.648-6.8,8.292-10.219h0a5.025,5.025,0,0,1,3.929.483,3.977,3.977,0,0,1,1.722,3.65h0c-2.642,3.726-5.313,7.266-8.062,10.831-1.371,1.778-2.766,3.543-4.2,5.307q-1.074,1.322-2.229,2.652c-.424.462-.771.881-1.262,1.377-.256.249-.459.476-.811.79l-1.222.917c-.666.339-1.1.579-1.556.76s-.921.39-1.351.523c-.884.308-1.736.54-2.585.76-1.679.4-3.315.688-4.937.927-3.232.443-6.409.7-9.564.85-6.309.3-12.547.26-18.781.059-3.714-.109-6.632-2.538-6.394-5.255S87.435,330.083,91.006,330.36Z" fill="#d49b3d"/>
          </g>
          <g id="Gruppe_87" data-name="Gruppe 87">
            <path id="Pfad_180" data-name="Pfad 180" d="M141.507,315.3h0a5.676,5.676,0,0,0,7.729-1.829h0a5.53,5.53,0,0,0-1.762-7.657h0a5.676,5.676,0,0,0-7.729,1.829h0A5.53,5.53,0,0,0,141.507,315.3Z" fill="#ffcdb5"/>
            <path id="Pfad_181" data-name="Pfad 181" d="M147.308,313.675h0a1.394,1.394,0,0,0,1.944-.195l5.868-7.052a1.366,1.366,0,0,0-.177-1.929h0a1.4,1.4,0,0,0-1.944.2l-5.868,7.051A1.366,1.366,0,0,0,147.308,313.675Z" fill="#ffcdb5"/>
            <path id="Pfad_182" data-name="Pfad 182" d="M146.721,310.064h0a1.4,1.4,0,0,0,1.927-.329l5.363-7.436a1.363,1.363,0,0,0-.312-1.91h0a1.4,1.4,0,0,0-1.927.329l-5.363,7.436A1.363,1.363,0,0,0,146.721,310.064Z" fill="#ffcdb5"/>
            <path id="Pfad_183" data-name="Pfad 183" d="M144.536,307.912h0a1.4,1.4,0,0,0,1.9-.451l4.878-7.755a1.361,1.361,0,0,0-.434-1.885h0a1.4,1.4,0,0,0-1.9.45l-4.878,7.756A1.361,1.361,0,0,0,144.536,307.912Z" fill="#ffcdb5"/>
            <path id="Pfad_184" data-name="Pfad 184" d="M141.091,308.466h0a1.4,1.4,0,0,0,1.857-.616l4.173-8.146a1.36,1.36,0,0,0-.6-1.838h0a1.4,1.4,0,0,0-1.857.615l-4.172,8.147A1.361,1.361,0,0,0,141.091,308.466Z" fill="#ffcdb5"/>
            <path id="Pfad_185" data-name="Pfad 185" d="M140.492,310.688h0a1.65,1.65,0,0,0,1.86-1.391l.759-5.436a1.639,1.639,0,0,0-1.409-1.837h0a1.651,1.651,0,0,0-1.86,1.391l-.759,5.435A1.639,1.639,0,0,0,140.492,310.688Z" fill="#ffcdb5"/>
          </g>
          <g id="Gruppe_88" data-name="Gruppe 88">
            <path id="Pfad_186" data-name="Pfad 186" d="M60.655,421.231s-2.965-2.553-9.254-2.361l-.694,2.586,1.816,1.8a.887.887,0,0,1-.186,1.395,8.73,8.73,0,0,0-3.4,3.4c-1.247,2.583-3.467,8.786-1.029,11.066s10.353-8.964,10.353-8.964Z" fill="#e06566"/>
            <path id="Pfad_187" data-name="Pfad 187" d="M53.885,435.612h0a64.142,64.142,0,0,0,4.376-5.46l2.394-8.921S52.016,424.784,53.885,435.612Z" fill="#ffcdb5"/>
          </g>
          <path id="Pfad_188" data-name="Pfad 188" d="M104.307,329.944h0c3.318-.819,2.011-3.379,1.15-6.689l-1.946-7.487a6.329,6.329,0,0,0-7.6-4.531h0a6.142,6.142,0,0,0-4.469,7.508l1.947,7.487C94.251,329.543,100.989,330.763,104.307,329.944Z" fill="#ffcdb5"/>
          <path id="Pfad_189" data-name="Pfad 189" d="M102.66,324.786a16.946,16.946,0,0,0,2.933-1.028c-.046-.166-.092-.333-.136-.5l-1.946-7.487a6.233,6.233,0,0,0-1.816-3.015,7.185,7.185,0,0,0-5.449-.814,6.881,6.881,0,0,0-4.946,4.48,6.134,6.134,0,0,0,.144,2.326l1.454,5.592A17.214,17.214,0,0,0,102.66,324.786Z" fill="#e6af95"/>
          <g id="Gruppe_91" data-name="Gruppe 91">
            <g id="Gruppe_89" data-name="Gruppe 89">
              <path id="Pfad_190" data-name="Pfad 190" d="M81.869,316.344h0a3.654,3.654,0,0,0,1.968-4.809L82.341,308a3.76,3.76,0,0,0-4.857-2.013h0a3.656,3.656,0,0,0-1.968,4.81l1.5,3.534A3.76,3.76,0,0,0,81.869,316.344Z" fill="#ffcdb5"/>
              <path id="Pfad_191" data-name="Pfad 191" d="M80.9,315.018h0a2.208,2.208,0,0,0,1.189-2.906l-1.4-3.3a2.27,2.27,0,0,0-2.934-1.216h0a2.208,2.208,0,0,0-1.189,2.9l1.4,3.3A2.272,2.272,0,0,0,80.9,315.018Z" fill="#e6af95"/>
              <path id="Pfad_192" data-name="Pfad 192" d="M80.121,312.02l2.871-1.176a.947.947,0,0,0,.51-1.245h0a.973.973,0,0,0-1.257-.521l-2.872,1.177a.945.945,0,0,0-.509,1.244h0A.972.972,0,0,0,80.121,312.02Z" fill="#ffcdb5"/>
            </g>
            <path id="Pfad_193" data-name="Pfad 193" d="M100.738,323.425h0c7.711-1.9,11.392-9.51,9.631-17.531l-2.126-9.683c-1.933-8.8-10.578-14.578-19.13-12.467h0c-8.552,2.11-13.333,11.2-10.732,19.835l2.861,9.5C83.611,320.951,93.027,325.327,100.738,323.425Z" fill="#ffcdb5"/>
            <g id="Gruppe_90" data-name="Gruppe 90">
              <path id="Pfad_194" data-name="Pfad 194" d="M102.9,303.075l-.346-1.373a1.6,1.6,0,0,1,1.164-1.956h0a1.65,1.65,0,0,1,1.98,1.18l.346,1.373a1.622,1.622,0,0,0,1.261-.848" fill="none" stroke="#2d5f75" stroke-linecap="round" stroke-linejoin="round" stroke-width="0.632"/>
            </g>
            <path id="Pfad_195" data-name="Pfad 195" d="M90.694,305.985l-.331-1.274a1.648,1.648,0,0,0-1.979-1.18h0a1.6,1.6,0,0,0-1.165,1.956l.3,1.3a3.2,3.2,0,0,1-1.737-.093" fill="none" stroke="#2d5f75" stroke-linecap="round" stroke-linejoin="round" stroke-width="0.632"/>
            <path id="Pfad_196" data-name="Pfad 196" d="M100.543,307.23l-.108-.415a1.839,1.839,0,0,1-1.393,1.711h0a1.9,1.9,0,0,1-2.12-.955l.135.518a1.828,1.828,0,0,0,2.195,1.309h0A1.774,1.774,0,0,0,100.543,307.23Z" fill="#e6af95"/>
            <path id="Pfad_197" data-name="Pfad 197" d="M105.3,297.573a2.509,2.509,0,0,0-2.248-.4,2.367,2.367,0,0,0-1.815,1.515" fill="none" stroke="#2d5f75" stroke-linecap="round" stroke-linejoin="round" stroke-width="0.67"/>
            <path id="Pfad_198" data-name="Pfad 198" d="M89.994,301.355a2.509,2.509,0,0,0-2.248-.4,2.368,2.368,0,0,0-1.815,1.516" fill="none" stroke="#2d5f75" stroke-linecap="round" stroke-linejoin="round" stroke-width="0.67"/>
            <path id="Pfad_199" data-name="Pfad 199" d="M92.031,313.163c.187,4.417,5.447,3.508,8.182,2.784a12.306,12.306,0,0,0,3.773-1.664c.555-.447,1.029-.963.986-1.4" fill="none" stroke="#b38874" stroke-miterlimit="10" stroke-width="1.247"/>
          </g>
        </g>
        <circle id="Ellipse_11" data-name="Ellipse 11" cx="9.374" cy="9.374" r="9.374" transform="translate(62.33 282.638)" fill="#3b79a3"/>
        <path id="Pfad_200" data-name="Pfad 200" d="M72.421,301.351a9.361,9.361,0,0,0,4.08-17.382C71.537,288.521,70.8,295.691,72.421,301.351Z" fill="#f0b045"/>
        <path id="Pfad_201" data-name="Pfad 201" d="M80.467,310.314s1.826-12.137,10.782-19c0,0,12.665.7,17.342,6.3,0,0,0-21.26-21.777-16.6C69.2,284.779,72.465,306.438,80.467,310.314Z" fill="#3b79a3"/>
      </g>
    </g>
  </g>
</svg>
